<svg id="svg" version="1.1" width="400" height="224" viewBox="0 0 400 224" xmlns="http://www.w3.org/2000/svg" xmlns:xlink="http://www.w3.org/1999/xlink" ><g id="svgg"><path id="path0" d="M182.803 47.051 C 182.751 89.163,182.709 94.138,182.398 94.448 C 182.087 94.760,172.875 94.795,91.026 94.792 L -0.000 94.789 -0.000 112.044 L 0.000 129.300 90.938 129.300 C 169.121 129.300,181.936 129.344,182.310 129.618 C 182.738 129.931,182.746 130.705,182.803 177.013 L 182.860 224.090 200.000 224.090 L 217.140 224.090 217.197 177.013 C 217.254 130.705,217.262 129.931,217.690 129.618 C 218.064 129.344,230.879 129.300,309.062 129.300 L 400.000 129.300 400.000 112.044 L 400.000 94.789 308.974 94.792 C 227.125 94.795,217.913 94.760,217.602 94.448 C 217.291 94.138,217.249 89.163,217.197 47.051 L 217.140 0.000 200.000 0.000 L 182.860 0.000 182.803 47.051 " stroke="none" fill="#ffffff" fill-rule="evenodd"></path><path id="path1" d="M36.303 0.443 C 37.049 1.020,38.247 1.700,58.824 13.216 C 68.560 18.665,77.737 23.809,79.216 24.646 C 80.695 25.483,88.258 29.725,96.022 34.071 C 103.787 38.418,113.417 43.810,117.423 46.053 C 121.429 48.295,132.319 54.392,141.625 59.601 C 150.930 64.810,159.653 69.701,161.008 70.470 C 169.185 75.110,181.359 81.853,181.740 81.953 C 182.927 82.263,182.857 84.823,182.857 40.757 L 182.857 0.000 109.300 0.005 C 36.548 0.010,35.748 0.015,36.303 0.443 M217.143 40.575 C 217.143 82.032,217.143 82.017,217.994 82.017 C 218.504 82.017,210.848 86.275,279.552 47.781 C 291.526 41.072,296.344 38.374,324.930 22.361 C 360.922 2.201,362.748 1.173,363.640 0.567 L 364.474 0.000 290.808 0.000 L 217.143 0.000 217.143 40.575 M-0.000 57.367 L -0.000 94.791 66.047 94.734 C 126.196 94.683,132.101 94.646,132.163 94.322 C 132.264 93.800,130.420 92.725,107.787 80.104 C 102.848 77.349,53.488 49.701,51.204 48.409 C 48.779 47.037,31.937 37.600,27.787 35.287 C 26.863 34.772,20.711 31.326,14.118 27.628 C 2.427 21.074,0.370 19.944,0.121 19.944 C 0.054 19.944,-0.000 36.784,-0.000 57.367 M394.734 22.706 C 389.985 25.358,364.140 39.837,341.064 52.775 C 334.964 56.196,327.854 60.178,325.266 61.625 C 322.678 63.072,317.686 65.866,314.174 67.834 C 310.661 69.802,299.720 75.929,289.860 81.450 C 266.061 94.776,267.499 93.919,267.890 94.552 C 267.994 94.719,287.666 94.790,334.019 94.790 L 400.000 94.790 400.000 57.367 C 400.000 36.784,399.924 19.946,399.832 19.949 C 399.739 19.952,397.445 21.192,394.734 22.706 M0.000 166.723 C 0.000 187.305,0.054 204.146,0.119 204.146 C 0.394 204.146,3.134 202.641,16.291 195.268 C 28.989 188.152,38.363 182.900,55.238 173.447 C 58.689 171.514,72.555 163.747,86.050 156.186 C 99.546 148.626,115.198 139.859,120.833 136.704 C 132.137 130.374,132.362 130.234,132.148 129.679 C 132.012 129.324,127.813 129.300,66.001 129.300 L 0.000 129.300 0.000 166.723 M267.872 129.568 C 267.582 130.036,269.059 131.026,274.958 134.317 C 286.071 140.517,318.567 158.715,320.224 159.666 C 321.148 160.197,328.258 164.185,336.022 168.530 C 351.680 177.290,357.040 180.291,381.513 193.997 C 398.408 203.459,399.651 204.146,399.877 204.146 C 399.945 204.146,400.000 187.305,400.000 166.723 L 400.000 129.300 334.019 129.300 C 283.070 129.300,268.000 129.361,267.872 129.568 M176.807 144.790 C 174.157 146.278,169.417 148.935,166.275 150.695 C 148.485 160.655,116.382 178.641,101.064 187.229 C 94.964 190.649,87.854 194.632,85.266 196.079 C 45.640 218.228,35.854 223.757,35.854 223.993 C 35.854 224.046,68.930 224.090,109.356 224.090 L 182.857 224.090 182.857 183.515 C 182.857 155.974,182.783 142.800,182.625 142.506 C 182.248 141.802,181.851 141.958,176.807 144.790 M217.375 142.506 C 217.217 142.800,217.143 155.974,217.143 183.515 L 217.143 224.090 290.800 224.090 L 364.457 224.090 363.349 223.382 C 362.412 222.784,355.297 218.748,348.000 214.677 C 346.947 214.089,340.241 210.334,333.098 206.331 C 325.956 202.329,313.759 195.501,305.994 191.157 C 298.230 186.814,291.120 182.826,290.196 182.296 C 289.272 181.767,284.230 178.937,278.992 176.008 C 273.754 173.079,267.804 169.750,265.770 168.611 C 263.737 167.472,252.245 161.035,240.232 154.306 C 218.046 141.879,217.783 141.743,217.375 142.506 " stroke="none" fill="#d62718" fill-rule="evenodd"></path><path id="path2" d="M0.000 9.927 L 0.000 19.855 0.952 20.317 C 1.476 20.572,7.350 23.834,14.006 27.565 C 20.661 31.297,26.863 34.772,27.787 35.287 C 31.937 37.600,48.779 47.037,51.204 48.409 C 53.488 49.701,102.848 77.349,107.787 80.104 C 133.586 94.490,133.371 94.358,131.582 94.780 C 131.297 94.847,142.541 94.873,156.568 94.839 C 178.892 94.783,182.113 94.733,182.408 94.439 C 183.008 93.840,183.034 81.454,182.436 81.828 C 182.089 82.045,181.866 82.046,181.399 81.833 C 180.905 81.608,161.849 70.975,159.328 69.518 C 158.896 69.268,150.930 64.804,141.625 59.597 C 132.319 54.391,121.429 48.295,117.423 46.053 C 113.417 43.810,103.787 38.420,96.022 34.076 C 88.258 29.731,81.148 25.742,80.224 25.212 C 79.300 24.681,72.997 21.146,66.218 17.357 C 44.108 4.997,37.550 1.297,36.598 0.643 L 35.662 -0.000 17.831 -0.000 L 0.000 0.000 0.000 9.927 M363.640 0.567 C 362.748 1.173,360.922 2.201,324.930 22.361 C 296.344 38.374,291.526 41.072,279.552 47.781 C 236.217 72.061,219.832 81.236,219.163 81.596 C 218.189 82.121,217.680 82.129,217.379 81.625 C 217.214 81.347,217.161 83.115,217.200 87.667 C 217.246 93.043,217.310 94.158,217.592 94.439 C 217.887 94.733,221.110 94.783,243.459 94.839 C 257.501 94.873,268.795 94.867,268.556 94.824 C 267.125 94.567,267.756 93.879,271.245 91.893 C 273.581 90.564,299.873 75.829,314.062 67.898 C 316.650 66.451,321.641 63.657,325.154 61.689 C 338.803 54.041,351.120 47.138,369.860 36.635 C 380.583 30.625,391.747 24.385,394.670 22.770 L 399.985 19.832 399.993 9.916 L 400.000 0.000 382.237 0.000 L 364.474 0.000 363.640 0.567 M132.140 129.719 C 132.293 130.301,132.365 130.256,120.560 136.861 C 114.829 140.068,98.846 149.019,85.042 156.753 C 71.238 164.487,57.826 171.999,55.238 173.446 C 52.650 174.894,45.591 178.848,39.552 182.233 C 8.544 199.614,2.041 203.245,1.064 203.719 L -0.000 204.235 -0.000 214.162 L 0.000 224.090 17.811 224.090 L 35.622 224.090 36.903 223.270 C 37.949 222.601,60.936 209.676,85.266 196.078 C 87.854 194.632,94.964 190.649,101.064 187.229 C 116.179 178.755,148.107 160.867,166.050 150.820 C 183.673 140.953,182.171 141.711,182.621 142.465 C 182.786 142.742,182.839 140.967,182.800 136.396 C 182.748 130.294,182.721 129.918,182.310 129.618 C 181.534 129.051,131.992 129.151,132.140 129.719 M217.690 129.618 C 217.279 129.917,217.251 130.301,217.189 136.396 C 217.131 142.112,217.161 142.805,217.451 142.409 C 217.945 141.734,214.531 139.881,266.891 169.238 C 268.308 170.032,273.754 173.079,278.992 176.008 C 284.230 178.937,289.272 181.767,290.196 182.296 C 291.120 182.826,298.230 186.814,305.994 191.157 C 313.759 195.501,325.956 202.329,333.098 206.331 C 340.241 210.334,346.947 214.089,348.000 214.677 C 355.297 218.748,362.412 222.784,363.349 223.382 L 364.457 224.090 382.229 224.090 L 400.000 224.090 400.000 214.159 L 400.000 204.229 399.234 203.864 C 398.813 203.663,390.872 199.243,381.587 194.041 C 363.772 184.061,358.714 181.229,336.022 168.525 C 328.258 164.178,320.695 159.937,319.216 159.100 C 315.465 156.977,282.367 138.450,275.294 134.514 C 269.185 131.114,267.879 130.253,267.930 129.659 C 267.975 129.144,218.394 129.103,217.690 129.618 " stroke="none" fill="#009c46" fill-rule="evenodd"></path></g></svg>